<svg width="15" height="10" viewBox="0 0 15 10" fill="none" xmlns="http://www.w3.org/2000/svg">
<path d="M7.47235 10L1.56034 4.31111C1.39113 4.15011 1.25402 3.95569 1.15687 3.73904C1.05973 3.52238 1.00446 3.28776 0.994276 3.04868C0.984088 2.8096 1.01918 2.57077 1.09751 2.34593C1.17584 2.12109 1.29587 1.91469 1.45071 1.73856C1.60555 1.56244 1.79215 1.42007 1.99975 1.31968C2.20735 1.21929 2.43187 1.16284 2.6604 1.15357C2.88893 1.1443 3.11696 1.18239 3.33136 1.26567C3.54577 1.34894 3.74232 1.47576 3.90973 1.63881L7.4505 5.04541L11.0787 1.49088C11.2442 1.32401 11.4398 1.19321 11.6541 1.10611C11.8683 1.01901 12.097 0.977319 12.3268 0.983474C12.5566 0.98963 12.7829 1.0435 12.9926 1.14197C13.2023 1.24043 13.3913 1.38152 13.5485 1.55704C13.7056 1.73256 13.8279 1.939 13.9082 2.16439C13.9885 2.38978 14.0251 2.6296 14.0161 2.86995C14.007 3.11029 13.9524 3.34638 13.8555 3.56446C13.7585 3.78254 13.6211 3.97827 13.4512 4.1403L7.47235 10Z" fill="#1BC6C6"/>
</svg>
