<svg width="32" height="44" viewBox="0 0 32 44" fill="none" xmlns="http://www.w3.org/2000/svg">
<path d="M14.73 44C14.2952 43.9983 13.8667 43.8834 13.4775 43.6643C12.8999 43.3492 12.4369 42.817 12.1677 42.1586C11.8984 41.5001 11.8396 40.7563 12.0013 40.0543L13.9785 29.7167H2.79136C2.35635 29.7158 1.92753 29.6 1.53899 29.3786C1.15045 29.1573 0.812899 28.8365 0.553177 28.4416C0.293456 28.0468 0.118715 27.5889 0.0428529 27.1042C-0.0330097 26.6196 -0.00789372 26.1216 0.116181 25.6499L0.133191 25.5784L7.08624 2.21776C7.26673 1.57495 7.62314 1.01367 8.10401 0.615034C8.58487 0.216394 9.16529 0.00101689 9.76142 1.27631e-07H22.6096C23.0767 -0.000149965 23.5365 0.132084 23.9469 0.384652C24.3572 0.637221 24.7051 1.00209 24.9588 1.44591C25.2125 1.88972 25.3639 2.39833 25.3992 2.92537C25.4344 3.4524 25.3525 3.98103 25.1607 4.463L25.0756 4.65288L20.5181 13.4826H29.2027C29.718 13.4825 30.2234 13.6435 30.663 13.9478C31.1025 14.2521 31.4592 14.6879 31.6937 15.2071C31.9282 15.7263 32.0313 16.3087 31.9917 16.89C31.9521 17.4713 31.7713 18.029 31.4693 18.5014L16.982 42.6903L16.9528 42.7315C16.6957 43.1249 16.3607 43.4445 15.9747 43.6648C15.5886 43.8851 15.1623 43.9999 14.73 44ZM17.7481 29.5269L16.4786 36.1608L27.5879 17.6099H19.0346C18.5674 17.6101 18.1077 17.4778 17.6973 17.2252C17.2869 16.9727 16.939 16.6078 16.6853 16.164C16.4316 15.7202 16.2802 15.2116 16.245 14.6845C16.2097 14.1575 16.2917 13.6289 16.4834 13.1469L16.5685 12.957L21.1066 4.12732H10.3548L3.96843 25.5894H15.0364C15.462 25.5889 15.882 25.6984 16.2645 25.9096C16.647 26.1207 16.9818 26.4279 17.2434 26.8078C17.505 27.1876 17.6864 27.63 17.7739 28.1012C17.8613 28.5725 17.8525 29.0601 17.7481 29.5269Z" fill="#1BC6C6"/>
</svg>
