<svg width="18" height="21" viewBox="0 0 18 21" fill="none" xmlns="http://www.w3.org/2000/svg">
<path d="M7.83027 21C7.59938 20.9992 7.37177 20.9444 7.16505 20.8398C6.85827 20.6894 6.61237 20.4354 6.46936 20.1211C6.32636 19.8069 6.29512 19.4519 6.38099 19.1168L7.43114 14.183H1.48935C1.2583 14.1825 1.03054 14.1273 0.824175 14.0216C0.617811 13.916 0.438529 13.7629 0.300583 13.5744C0.162637 13.386 0.069828 13.1674 0.0295353 12.9361C-0.0107575 12.7048 0.00258233 12.4672 0.0684816 12.242L0.0775165 12.2079L3.77047 1.05848C3.86634 0.751683 4.05564 0.483799 4.31104 0.293539C4.56644 0.103279 4.87472 0.000485332 5.19134 6.09147e-08H12.0154C12.2635 -7.15744e-05 12.5077 0.0630399 12.7256 0.183584C12.9436 0.304128 13.1284 0.478272 13.2631 0.690092C13.3979 0.901911 13.4783 1.14466 13.497 1.3962C13.5157 1.64774 13.4722 1.90004 13.3704 2.13007L13.3251 2.22069L10.9045 6.43487H15.5171C15.7909 6.43482 16.0593 6.51166 16.2927 6.6569C16.5262 6.80214 16.7157 7.01014 16.8402 7.25794C16.9647 7.50574 17.0195 7.78369 16.9985 8.06114C16.9774 8.33859 16.8814 8.60474 16.721 8.83022L9.02638 20.3749L9.01088 20.3946C8.87435 20.5823 8.69642 20.7349 8.49138 20.84C8.28634 20.9452 8.05991 21 7.83027 21ZM9.43327 14.0924L8.759 17.2586L14.6595 8.40473H10.1166C9.86845 8.4048 9.62427 8.34169 9.40631 8.22114C9.18836 8.1006 9.00356 7.92646 8.86882 7.71464C8.73408 7.50282 8.65367 7.26007 8.63494 7.00853C8.61621 6.75699 8.65975 6.50469 8.76159 6.27466L8.80679 6.18404L11.2171 1.96986H5.50651L2.11452 12.2131H7.99302C8.21907 12.2129 8.44217 12.2652 8.64532 12.3659C8.84847 12.4667 9.0263 12.6133 9.16523 12.7946C9.30416 12.9759 9.40053 13.187 9.44699 13.4119C9.49344 13.6369 9.48875 13.8696 9.43327 14.0924Z" fill="#1BC6C6"/>
</svg>
