<svg width="17" height="21" viewBox="0 0 17 21" fill="none" xmlns="http://www.w3.org/2000/svg">
<path d="M7.82529 21C7.59434 20.9992 7.36668 20.9444 7.15992 20.8398C6.85307 20.6894 6.60711 20.4354 6.46407 20.1211C6.32103 19.8069 6.28979 19.4519 6.37568 19.1168L7.42607 14.183H1.48291C1.25181 14.1825 1.024 14.1273 0.817588 14.0216C0.611177 13.916 0.431853 13.7629 0.293876 13.5744C0.155898 13.386 0.0630676 13.1674 0.0227656 12.9361C-0.0175364 12.7048 -0.00419354 12.4671 0.0617209 12.242L0.0707579 12.2079L3.76456 1.05848C3.86045 0.751683 4.0498 0.483799 4.30525 0.293539C4.56071 0.103279 4.86906 0.000485332 5.18575 6.09147e-08H12.0113C12.2595 -7.15744e-05 12.5038 0.0630399 12.7218 0.183584C12.9398 0.304128 13.1246 0.478272 13.2594 0.690091C13.3941 0.901911 13.4746 1.14466 13.4933 1.3962C13.512 1.64774 13.4685 1.90004 13.3666 2.13007L13.3214 2.22069L10.9002 6.43487H15.5139C15.7877 6.43482 16.0562 6.51165 16.2897 6.65689C16.5232 6.80213 16.7127 7.01014 16.8373 7.25793C16.9619 7.50573 17.0166 7.78369 16.9956 8.06114C16.9746 8.33859 16.8785 8.60474 16.7181 8.83021L9.02168 20.3749L9.00617 20.3946C8.86961 20.5823 8.69164 20.7349 8.48655 20.84C8.28147 20.9452 8.05499 21 7.82529 21ZM9.42866 14.0924L8.75423 17.2586L14.656 8.40473H10.1121C9.86394 8.4048 9.6197 8.34169 9.4017 8.22114C9.18369 8.1006 8.99886 7.92645 8.86408 7.71463C8.72931 7.50282 8.64888 7.26007 8.63015 7.00853C8.61141 6.75699 8.65496 6.50469 8.75682 6.27466L8.80204 6.18404L11.2129 1.96986H5.501L2.10823 12.2131H7.98808C8.21418 12.2129 8.43733 12.2652 8.64053 12.3659C8.84373 12.4667 9.0216 12.6133 9.16056 12.7946C9.29952 12.9759 9.39592 13.187 9.44238 13.4119C9.48884 13.6369 9.48415 13.8696 9.42866 14.0924Z" fill="#1BC6C6"/>
</svg>
