<svg width="74" height="39" viewBox="0 0 74 39" fill="none" xmlns="http://www.w3.org/2000/svg">
<path d="M0.031955 26.3044L0 37.4861C0.000714607 37.6421 0.0473115 37.7943 0.133953 37.9238C0.220595 38.0533 0.343431 38.1543 0.487074 38.2142C0.630718 38.274 0.788784 38.2901 0.941475 38.2603C1.09417 38.2305 1.23469 38.1562 1.34545 38.0467L10.9234 28.4497C10.9234 28.4497 0.482682 26.7562 0.031955 26.3044Z" fill="#41BEBE"/>
<path d="M1.20503 0.331451H72.8143C73.1288 0.331451 73.4304 0.456674 73.6527 0.679572C73.8751 0.90247 74 1.20478 74 1.52001V28.0417C74 28.3569 73.8751 28.6592 73.6527 28.8821C73.4304 29.105 73.1288 29.2303 72.8143 29.2303H0.0193481V1.52001C0.0193481 1.20478 0.144268 0.90247 0.366626 0.679572C0.588985 0.456674 0.890568 0.331451 1.20503 0.331451V0.331451Z" fill="#1BC6C6"/>
<path d="M15.1406 8.40353H14.7016L12.3471 12.4716H11.0698L13.7758 7.7317L11.3136 3.49167H12.5935L14.8236 7.30348H15.0069L17.2496 3.49167H18.5286L16.0547 7.7317L18.7725 12.4699H17.4909L15.1406 8.40353Z" fill="white"/>
<path d="M26.6215 9.03827C26.6215 10.9568 24.9767 12.5087 23.0897 12.5087C21.2027 12.5087 19.5427 10.9568 19.5427 9.03827C19.5427 7.14501 21.1884 5.59314 23.0897 5.59314C24.991 5.59314 26.6215 7.14501 26.6215 9.03827ZM20.7595 9.03827C20.7595 10.285 21.8443 11.2864 23.0872 11.2864C24.33 11.2864 25.403 10.285 25.403 9.03827C25.403 7.81684 24.33 6.81542 23.0872 6.81542C21.8443 6.81542 20.7595 7.81684 20.7595 9.03827Z" fill="#8CFFF1"/>
<path d="M34.0197 9.05092C34.0197 10.9568 32.5809 12.507 30.5342 12.507C30.0582 12.507 29.4124 12.3477 28.8036 12.0425V13.7343C28.8036 13.8145 28.7878 13.8938 28.7572 13.9679C28.7266 14.0419 28.6818 14.1092 28.6252 14.1659C28.5687 14.2226 28.5016 14.2675 28.4277 14.2982C28.3539 14.3288 28.2747 14.3446 28.1947 14.3446C28.1144 14.3452 28.0348 14.3298 27.9605 14.2994C27.8861 14.269 27.8185 14.2241 27.7615 14.1674C27.7045 14.1107 27.6593 14.0432 27.6285 13.9689C27.5976 13.8945 27.5817 13.8148 27.5817 13.7343V5.63023H28.5572L28.7035 6.36275C29.3493 5.92358 30.2634 5.59314 30.8966 5.59314C32.5809 5.59314 34.0197 7.14501 34.0197 9.05092ZM28.8061 7.48725V10.725C29.4149 11.1153 29.9758 11.2864 30.6561 11.2864C31.8863 11.2864 32.8004 10.2968 32.8004 9.05092C32.8004 7.82948 31.899 6.81542 30.6561 6.81542C29.985 6.82722 29.4124 7.07504 28.8036 7.48725H28.8061Z" fill="white"/>
<path d="M41.9294 9.03827C41.9294 10.9568 40.2838 12.5087 38.3976 12.5087C36.4963 12.5087 34.8506 10.9568 34.8506 9.03827C34.8506 7.14501 36.4963 5.59314 38.3976 5.59314C40.2838 5.59314 41.9294 7.14501 41.9294 9.03827ZM36.0674 9.03827C36.0674 10.285 37.1522 11.2864 38.3951 11.2864C39.6379 11.2864 40.7109 10.285 40.7109 9.03827C40.7109 7.81684 39.6379 6.81542 38.3951 6.81542C37.1522 6.81542 36.0674 7.81684 36.0674 9.03827Z" fill="#8CFFF1"/>
<path d="M47.9864 5.63022V11.3353H50.6437V5.63022H51.8622V12.4699H42.8922V5.63022H44.1107V11.3353H46.768V5.63022H47.9864Z" fill="white"/>
<path d="M58.1757 12.4699V6.76651H57.8226L55.336 12.4699H53.2034V5.63022H54.4219V11.3353H54.6658L57.1767 5.63022H59.3942V12.4699H58.1757Z" fill="white"/>
<path d="M65.8785 10.4679L66.6219 11.4086C66.4756 11.5924 65.659 12.5045 63.9041 12.5045C62.0028 12.5045 60.479 10.9872 60.479 9.03406C60.4755 8.5837 60.5608 8.13707 60.73 7.71985C60.8992 7.30262 61.149 6.92303 61.465 6.60289C61.781 6.28274 62.157 6.02836 62.5714 5.85435C62.9858 5.68034 63.4304 5.59014 63.8797 5.58893C65.7078 5.58893 67.1828 7.0801 67.1828 9.03406C67.1823 9.18106 67.1742 9.32793 67.1584 9.47408H61.7345C61.954 10.5252 62.8277 11.3193 63.9041 11.3193C65.0738 11.3235 65.675 10.7124 65.8785 10.4679ZM61.7833 8.33947H65.8541C65.7078 7.52097 64.8787 6.81289 63.8797 6.81289C62.8555 6.81542 62.0272 7.4628 61.7833 8.33947Z" fill="white"/>
<path d="M11.2682 25.2406V18.3984H12.4876V21.111H16.238V18.3984H17.4565V25.2406H16.238V22.2481H12.4842V25.2406H11.2682Z" fill="white"/>
<path d="M25.5006 21.8073C25.5006 23.7258 23.8549 25.2769 21.9687 25.2769C20.0826 25.2769 18.4159 23.7258 18.4159 21.8073C18.4159 19.914 20.0607 18.3622 21.962 18.3622C23.8633 18.3622 25.5006 19.914 25.5006 21.8073ZM19.6377 21.8073C19.6377 23.0532 20.7225 24.0554 21.9654 24.0554C23.2082 24.0554 24.2812 23.0532 24.2812 21.8073C24.2812 20.5859 23.2091 19.5836 21.9654 19.5836C20.7217 19.5836 19.6377 20.5859 19.6377 21.8073Z" fill="white"/>
<path d="M30.525 25.2406H26.4634V18.3984H30.2777C30.5339 18.3966 30.788 18.4455 31.0253 18.5422C31.2626 18.6389 31.4786 18.7816 31.6609 18.962C31.8432 19.1425 31.9882 19.3572 32.0876 19.5939C32.1871 19.8306 32.239 20.0846 32.2404 20.3414C32.2404 20.7325 32.0083 21.3184 31.582 21.5384C32.0941 21.7584 32.5911 22.4791 32.5911 23.1636C32.5913 23.7135 32.3739 24.241 31.9865 24.6304C31.5992 25.0198 31.0735 25.2393 30.525 25.2406ZM27.6852 19.5836V21.1009H30.4241C30.7167 21.0773 31.0211 20.7595 31.0211 20.3422C31.0188 20.1441 30.9402 19.9544 30.8016 19.8131C30.6631 19.6717 30.4754 19.5894 30.2777 19.5836H27.6852ZM27.6852 22.281V24.0512H30.525C31.0001 24.0512 31.3777 23.6238 31.3777 23.1594C31.379 22.9303 31.2903 22.7099 31.1307 22.546C30.9711 22.382 30.7534 22.2878 30.525 22.2835L27.6852 22.281Z" fill="white"/>
<path d="M40.6377 21.8073C40.6377 23.7258 38.9921 25.2769 37.1059 25.2769C35.2198 25.2769 33.559 23.7258 33.559 21.8073C33.559 19.914 35.2046 18.3622 37.1059 18.3622C39.0072 18.3622 40.6377 19.914 40.6377 21.8073ZM34.7749 21.8073C34.7749 23.0532 35.8597 24.0554 37.1034 24.0554C38.3471 24.0554 39.4184 23.0532 39.4184 21.8073C39.4184 20.5859 38.3463 19.5836 37.1034 19.5836C35.8605 19.5836 34.7749 20.5859 34.7749 21.8073Z" fill="white"/>
<path d="M42.5635 21.8073C42.5635 23.1762 43.5869 24.0554 44.8339 24.0554C46.3695 24.0554 46.9909 23.2125 46.9909 23.2369L47.7586 24.2021C47.6981 24.2628 46.6856 25.2769 44.8339 25.2769C42.9327 25.2769 41.3475 23.8481 41.3475 21.8073C41.3475 19.7918 42.9327 18.3622 44.8339 18.3622C46.3812 18.3622 47.3323 19.0466 47.3685 19.0711V20.2799H46.4788L46.3106 19.8769C45.8435 19.682 45.3424 19.5823 44.8365 19.5836C43.5869 19.5836 42.5635 20.4636 42.5635 21.8073Z" fill="white"/>
<path d="M50.875 25.2406V19.5347H48.4363V18.3984H54.5304V19.5347H52.0918V25.2406H50.875Z" fill="white"/>
<path d="M60.7228 25.2406V19.5347H60.3696L57.8831 25.2406H55.7522V18.3984H56.9707V24.1026H57.2145L59.7255 18.3967H61.9438V25.2406H60.7228Z" fill="white"/>
<path d="M0.0193481 29.2404V32.9241L6.40942 32.871L10.1203 29.2404H0.0193481Z" fill="url(#paint0_linear_0_96)"/>
<path d="M30.5334 17.3371C29.3922 17.3375 28.2683 17.0569 27.2606 16.52C26.2528 15.9831 25.392 15.2063 24.7539 14.2578C24.7103 14.1931 24.6798 14.1204 24.6642 14.0439C24.6486 13.9674 24.6482 13.8886 24.663 13.8119C24.6778 13.7352 24.7075 13.6622 24.7504 13.5971C24.7934 13.5319 24.8487 13.4759 24.9132 13.4322C25.0436 13.3439 25.2036 13.3111 25.3581 13.341C25.4345 13.3559 25.5074 13.3857 25.5724 13.4287C25.6374 13.4717 25.6933 13.5272 25.7369 13.5919C26.2665 14.3791 26.9809 15.0239 27.8172 15.4697C28.6535 15.9155 29.5862 16.1486 30.5334 16.1486C31.4807 16.1486 32.4134 15.9155 33.2497 15.4697C34.086 15.0239 34.8004 14.3791 35.33 13.5919C35.4181 13.4613 35.5543 13.3712 35.7087 13.3413C35.8631 13.3114 36.023 13.3443 36.1532 13.4326C36.2835 13.5209 36.3734 13.6574 36.4032 13.8122C36.433 13.967 36.4003 14.1273 36.3122 14.2578C35.6742 15.2063 34.8136 15.9832 33.806 16.5201C32.7984 17.057 31.6746 17.3376 30.5334 17.3371Z" fill="#8CFFF1"/>
<defs>
<linearGradient id="paint0_linear_0_96" x1="5.06821" y1="32.9261" x2="5.0684" y2="29.2419" gradientUnits="userSpaceOnUse">
<stop offset="0.21" stop-color="#41BBBE" stop-opacity="0"/>
<stop offset="1" stop-color="#111111" stop-opacity="0.3"/>
</linearGradient>
</defs>
</svg>
