<svg width="100" height="52" viewBox="0 0 100 52" fill="none" xmlns="http://www.w3.org/2000/svg">
<path d="M0.0431824 35.175L0 50.2855C0.000965685 50.4962 0.0639344 50.7019 0.181018 50.877C0.298101 51.052 0.464095 51.1885 0.658208 51.2693C0.852322 51.3502 1.06592 51.3719 1.27226 51.3316C1.4786 51.2913 1.6685 51.1909 1.81818 51.043L14.7614 38.0741C14.7614 38.0741 0.652273 35.7856 0.0431824 35.175Z" fill="#41BEBE"/>
<path d="M1.6284 0.0764771H98.3977C98.8227 0.0764771 99.2302 0.245697 99.5307 0.54691C99.8312 0.848123 100 1.25666 100 1.68264V37.5228C100 37.9487 99.8312 38.3573 99.5307 38.6585C99.2302 38.9597 98.8227 39.1289 98.3977 39.1289H0.026123V1.68264C0.026123 1.25666 0.194933 0.848123 0.495418 0.54691C0.795902 0.245697 1.20345 0.0764771 1.6284 0.0764771V0.0764771Z" fill="#1BC6C6"/>
<path d="M20.4602 10.9847H19.8671L16.6852 16.4821H14.9591L18.6159 10.0768L15.2886 4.34705H17.0182L20.0318 9.49814H20.2796L23.3102 4.34705H25.0387L21.6955 10.0768L25.3682 16.4798H23.6364L20.4602 10.9847Z" fill="white"/>
<path d="M35.975 11.8424C35.975 14.4351 33.7522 16.5322 31.2022 16.5322C28.6522 16.5322 26.4091 14.4351 26.4091 11.8424C26.4091 9.28398 28.6329 7.18686 31.2022 7.18686C33.7716 7.18686 35.975 9.28398 35.975 11.8424ZM28.0534 11.8424C28.0534 13.5272 29.5193 14.8805 31.1988 14.8805C32.8784 14.8805 34.3284 13.5272 34.3284 11.8424C34.3284 10.1919 32.8784 8.83858 31.1988 8.83858C29.5193 8.83858 28.0534 10.1919 28.0534 11.8424Z" fill="#8CFFF1"/>
<path d="M45.9727 11.8595C45.9727 14.4351 44.0284 16.5299 41.2625 16.5299C40.6193 16.5299 39.7466 16.3146 38.9238 15.9023V18.1885C38.9238 18.2968 38.9026 18.404 38.8612 18.5041C38.8199 18.6041 38.7593 18.6951 38.6829 18.7716C38.6065 18.8482 38.5158 18.909 38.416 18.9504C38.3161 18.9919 38.2092 19.0132 38.1011 19.0132C37.9926 19.0139 37.885 18.9932 37.7845 18.9521C37.6841 18.911 37.5927 18.8503 37.5157 18.7737C37.4387 18.697 37.3776 18.6058 37.3359 18.5054C37.2942 18.405 37.2727 18.2973 37.2727 18.1885V7.23698H38.5909L38.7886 8.22688C39.6613 7.63339 40.8966 7.18686 41.7522 7.18686C44.0284 7.18686 45.9727 9.28398 45.9727 11.8595ZM38.9272 9.74646V14.1218C39.75 14.6492 40.5079 14.8805 41.4272 14.8805C43.0897 14.8805 44.325 13.5431 44.325 11.8595C44.325 10.2089 43.1068 8.83858 41.4272 8.83858C40.5204 8.85453 39.7466 9.18943 38.9238 9.74646H38.9272Z" fill="white"/>
<path d="M56.6613 11.8424C56.6613 14.4351 54.4374 16.5322 51.8886 16.5322C49.3193 16.5322 47.0954 14.4351 47.0954 11.8424C47.0954 9.28398 49.3193 7.18686 51.8886 7.18686C54.4374 7.18686 56.6613 9.28398 56.6613 11.8424ZM48.7397 11.8424C48.7397 13.5272 50.2056 14.8805 51.8852 14.8805C53.5647 14.8805 55.0147 13.5272 55.0147 11.8424C55.0147 10.1919 53.5647 8.83858 51.8852 8.83858C50.2056 8.83858 48.7397 10.1919 48.7397 11.8424Z" fill="#8CFFF1"/>
<path d="M64.8466 7.237V14.9466H68.4375V7.237H70.0841V16.4798H57.9625V7.237H59.6091V14.9466H63.2V7.237H64.8466Z" fill="white"/>
<path d="M78.6159 16.4798V8.77253H78.1387L74.7784 16.4798H71.8966V7.237H73.5432V14.9466H73.8727L77.2659 7.237H80.2625V16.4798H78.6159Z" fill="white"/>
<path d="M89.025 13.7744L90.0295 15.0457C89.8318 15.294 88.7284 16.5265 86.3568 16.5265C83.7875 16.5265 81.7284 14.4761 81.7284 11.8368C81.7236 11.2282 81.8389 10.6246 82.0675 10.0608C82.2961 9.49699 82.6337 8.98403 83.0607 8.5514C83.4878 8.11877 83.9959 7.775 84.5559 7.53986C85.1159 7.30471 85.7167 7.18281 86.3239 7.18118C88.7943 7.18118 90.7875 9.19629 90.7875 11.8368C90.7869 12.0354 90.7759 12.2339 90.7545 12.4314H83.425C83.7216 13.8519 84.9023 14.9249 86.3568 14.9249C87.9375 14.9306 88.75 14.1048 89.025 13.7744ZM83.4909 10.8981H88.992C88.7943 9.79205 87.6739 8.83519 86.3239 8.83519C84.9398 8.8386 83.8205 9.71345 83.4909 10.8981Z" fill="white"/>
<path d="M15.2273 33.7375V24.4912H16.875V28.1569H21.9432V24.4912H23.5898V33.7375H21.9432V29.6936H16.8705V33.7375H15.2273Z" fill="white"/>
<path d="M34.4603 29.0978C34.4603 31.6905 32.2364 33.7865 29.6875 33.7865C27.1387 33.7865 24.8864 31.6905 24.8864 29.0978C24.8864 26.5394 27.1091 24.4423 29.6785 24.4423C32.2478 24.4423 34.4603 26.5394 34.4603 29.0978ZM26.5376 29.0978C26.5376 30.7815 28.0035 32.1359 29.683 32.1359C31.3626 32.1359 32.8125 30.7815 32.8125 29.0978C32.8125 27.4473 31.3637 26.0928 29.683 26.0928C28.0023 26.0928 26.5376 27.4473 26.5376 29.0978Z" fill="white"/>
<path d="M41.25 33.7375H35.7614V24.4912H40.9159C41.2621 24.4888 41.6054 24.5549 41.9261 24.6856C42.2468 24.8163 42.5387 25.0091 42.785 25.2529C43.0314 25.4968 43.2273 25.7869 43.3617 26.1068C43.4961 26.4266 43.5662 26.7699 43.5682 27.1169C43.5682 27.6455 43.2545 28.4372 42.6784 28.7345C43.3704 29.0318 44.042 30.0057 44.042 30.9307C44.0423 31.6738 43.7485 32.3867 43.2251 32.9129C42.7016 33.4391 41.9913 33.7357 41.25 33.7375ZM37.4125 26.0929V28.1433H41.1136C41.5091 28.1114 41.9204 27.6819 41.9204 27.1181C41.9173 26.8503 41.8111 26.594 41.6238 26.403C41.4366 26.2119 41.183 26.1008 40.9159 26.0929H37.4125ZM37.4125 29.738V32.1302H41.25C41.892 32.1302 42.4023 31.5527 42.4023 30.925C42.4041 30.6154 42.2842 30.3176 42.0685 30.0961C41.8528 29.8746 41.5587 29.7471 41.25 29.7415L37.4125 29.738Z" fill="white"/>
<path d="M54.9159 29.0978C54.9159 31.6905 52.692 33.7865 50.1432 33.7865C47.5943 33.7865 45.35 31.6905 45.35 29.0978C45.35 26.5394 47.5738 24.4423 50.1432 24.4423C52.7125 24.4423 54.9159 26.5394 54.9159 29.0978ZM46.9932 29.0978C46.9932 30.7815 48.4591 32.1359 50.1397 32.1359C51.8204 32.1359 53.2682 30.7815 53.2682 29.0978C53.2682 27.4473 51.8193 26.0928 50.1397 26.0928C48.4602 26.0928 46.9932 27.4473 46.9932 29.0978Z" fill="white"/>
<path d="M57.5182 29.0978C57.5182 30.9478 58.9011 32.1359 60.5864 32.1359C62.6614 32.1359 63.5012 30.9968 63.5012 31.0298L64.5386 32.3341C64.4568 32.4161 63.0886 33.7865 60.5864 33.7865C58.0171 33.7865 55.875 31.8557 55.875 29.0978C55.875 26.3742 58.0171 24.4423 60.5864 24.4423C62.6773 24.4423 63.9625 25.3672 64.0114 25.4003V27.0338H62.8091L62.5818 26.4893C61.9506 26.2259 61.2735 26.0911 60.5898 26.0928C58.9011 26.0928 57.5182 27.2821 57.5182 29.0978Z" fill="white"/>
<path d="M68.75 33.7375V26.0268H65.4545V24.4912H73.6898V26.0268H70.3943V33.7375H68.75Z" fill="white"/>
<path d="M82.0579 33.7375V26.0268H81.5807L78.2204 33.7375H75.3409V24.4913H76.9875V32.1997H77.317L80.7102 24.489H83.7079V33.7375H82.0579Z" fill="white"/>
<path d="M0.026123 39.1426V44.1206L8.66135 44.0488L13.6761 39.1426H0.026123Z" fill="url(#paint0_linear_0_11)"/>
<path d="M41.2613 23.0571C39.7191 23.0576 38.2004 22.6784 36.8385 21.9529C35.4767 21.2273 34.3135 20.1776 33.4511 18.8959C33.3922 18.8084 33.351 18.7102 33.3299 18.6068C33.3088 18.5034 33.3083 18.3969 33.3283 18.2933C33.3482 18.1897 33.3884 18.091 33.4464 18.003C33.5045 17.9149 33.5792 17.8392 33.6664 17.7801C33.8426 17.6608 34.0588 17.6165 34.2676 17.657C34.3709 17.677 34.4693 17.7173 34.5572 17.7754C34.645 17.8336 34.7206 17.9085 34.7795 17.996C35.4952 19.0598 36.4606 19.9311 37.5907 20.5336C38.7209 21.136 39.9813 21.451 41.2613 21.451C42.5413 21.451 43.8018 21.136 44.932 20.5336C46.0621 19.9311 47.0274 19.0598 47.7432 17.996C47.8622 17.8195 48.0463 17.6977 48.2549 17.6574C48.4636 17.617 48.6797 17.6614 48.8557 17.7807C49.0317 17.9 49.1532 18.0846 49.1935 18.2937C49.2337 18.5028 49.1895 18.7195 49.0704 18.8959C48.2084 20.1776 47.0454 21.2274 45.6837 21.953C44.3221 22.6786 42.8034 23.0577 41.2613 23.0571Z" fill="#8CFFF1"/>
<defs>
<linearGradient id="paint0_linear_0_11" x1="6.84891" y1="44.1234" x2="6.84917" y2="39.1447" gradientUnits="userSpaceOnUse">
<stop offset="0.21" stop-color="#41BBBE" stop-opacity="0"/>
<stop offset="1" stop-color="#111111" stop-opacity="0.3"/>
</linearGradient>
</defs>
</svg>
