<svg width="127" height="65" viewBox="0 0 127 65" fill="none" xmlns="http://www.w3.org/2000/svg">
<path d="M0.0546936 44.455L0 63.5934C0.00122311 63.8603 0.0809776 64.1209 0.229272 64.3426C0.377567 64.5642 0.587811 64.7371 0.83367 64.8395C1.07953 64.942 1.35007 64.9694 1.61142 64.9184C1.87276 64.8674 2.11328 64.7403 2.30286 64.5529L18.6964 48.1268C18.6964 48.1268 0.826152 45.2283 0.0546936 44.455Z" fill="#41BEBE"/>
<path d="M2.0626 0H124.628C125.166 0 125.682 0.214329 126.063 0.595838C126.444 0.977347 126.657 1.49478 126.657 2.03432V47.4285C126.657 47.968 126.444 48.4855 126.063 48.867C125.682 49.2485 125.166 49.4628 124.628 49.4628H0.0332031V2.03432C0.0332031 1.49478 0.247014 0.977347 0.6276 0.595838C1.00819 0.214329 1.52437 0 2.0626 0V0Z" fill="#1BC6C6"/>
<path d="M25.9145 13.8161H25.1632L21.1332 20.7789H18.9469L23.5785 12.6662L19.3643 5.409H21.5549L25.3719 11.9332H25.6856L29.5242 5.409H31.7134L27.479 12.6662L32.1308 20.776H29.9373L25.9145 13.8161Z" fill="white"/>
<path d="M45.565 14.9025C45.565 18.1862 42.7498 20.8424 39.52 20.8424C36.2902 20.8424 33.4491 18.1862 33.4491 14.9025C33.4491 11.662 36.2658 9.00583 39.52 9.00583C42.7742 9.00583 45.565 11.662 45.565 14.9025ZM35.5317 14.9025C35.5317 17.0363 37.3884 18.7504 39.5157 18.7504C41.643 18.7504 43.4795 17.0363 43.4795 14.9025C43.4795 12.8119 41.643 11.0979 39.5157 11.0979C37.3884 11.0979 35.5317 12.8119 35.5317 14.9025Z" fill="#8CFFF1"/>
<path d="M58.2278 14.9241C58.2278 18.1862 55.7652 20.8395 52.262 20.8395C51.4473 20.8395 50.342 20.5668 49.2999 20.0445V22.9402C49.2999 23.0774 49.2729 23.2132 49.2206 23.3399C49.1682 23.4667 49.0915 23.5818 48.9947 23.6788C48.8979 23.7758 48.7831 23.8527 48.6566 23.9052C48.5302 23.9577 48.3947 23.9848 48.2579 23.9848C48.1204 23.9857 47.9841 23.9594 47.8569 23.9073C47.7296 23.8553 47.6139 23.7785 47.5164 23.6814C47.4188 23.5843 47.3414 23.4688 47.2886 23.3416C47.2358 23.2144 47.2086 23.078 47.2086 22.9402V9.06931H48.8782L49.1286 10.3231C50.234 9.5714 51.7985 9.00583 52.8823 9.00583C55.7652 9.00583 58.2278 11.662 58.2278 14.9241ZM49.3042 12.2478V17.7895C50.3463 18.4575 51.3063 18.7504 52.4707 18.7504C54.5763 18.7504 56.1408 17.0565 56.1408 14.9241C56.1408 12.8335 54.5979 11.0979 52.4707 11.0979C51.3221 11.1181 50.342 11.5422 49.2999 12.2478H49.3042Z" fill="white"/>
<path d="M71.7659 14.9025C71.7659 18.1862 68.9493 20.8424 65.7209 20.8424C62.4667 20.8424 59.65 18.1862 59.65 14.9025C59.65 11.662 62.4667 9.00583 65.7209 9.00583C68.9493 9.00583 71.7659 11.662 71.7659 14.9025ZM61.7327 14.9025C61.7327 17.0363 63.5894 18.7504 65.7166 18.7504C67.8439 18.7504 69.6804 17.0363 69.6804 14.9025C69.6804 12.8119 67.8439 11.0979 65.7166 11.0979C63.5894 11.0979 61.7327 12.8119 61.7327 14.9025Z" fill="#8CFFF1"/>
<path d="M82.1329 9.06931V18.834H86.6811V9.06931H88.7666V20.776H73.4137V9.06931H75.4992V18.834H80.0474V9.06931H82.1329Z" fill="white"/>
<path d="M99.5727 20.776V11.0142H98.9682L94.7122 20.776H91.0621V9.06931H93.1477V18.834H93.5651L97.8628 9.06931H101.658V20.776H99.5727Z" fill="white"/>
<path d="M112.757 17.3494L114.029 18.9596C113.779 19.2741 112.381 20.8352 109.377 20.8352C106.123 20.8352 103.515 18.2382 103.515 14.8953C103.509 14.1244 103.655 13.36 103.945 12.6459C104.234 11.9318 104.662 11.2821 105.203 10.7341C105.744 10.1861 106.387 9.75074 107.096 9.45291C107.806 9.15508 108.567 9.00069 109.336 8.99863C112.465 8.99863 114.989 11.5509 114.989 14.8953C114.988 15.1469 114.974 15.3983 114.947 15.6484H105.664C106.04 17.4475 107.535 18.8066 109.377 18.8066C111.379 18.8139 112.409 17.7678 112.757 17.3494ZM105.748 13.7064H112.715C112.465 12.3055 111.046 11.0935 109.336 11.0935C107.583 11.0979 106.165 12.2059 105.748 13.7064Z" fill="white"/>
<path d="M19.2866 42.6341V30.9231H21.3736V35.566H27.7928V30.9231H29.8783V42.6341H27.7928V37.5123H21.3678V42.6341H19.2866Z" fill="white"/>
<path d="M43.6464 36.7577C43.6464 40.0415 40.8297 42.6962 37.6014 42.6962C34.3731 42.6962 31.5204 40.0415 31.5204 36.7577C31.5204 33.5172 34.3356 30.8611 37.5899 30.8611C40.8441 30.8611 43.6464 33.5172 43.6464 36.7577ZM33.6117 36.7577C33.6117 38.8902 35.4684 40.6056 37.5956 40.6056C39.7229 40.6056 41.5594 38.8902 41.5594 36.7577C41.5594 34.6671 39.7243 32.9517 37.5956 32.9517C35.4669 32.9517 33.6117 34.6671 33.6117 36.7577Z" fill="white"/>
<path d="M52.2461 42.6342H45.2943V30.9231H51.8229C52.2614 30.9201 52.6962 31.0037 53.1024 31.1693C53.5086 31.3348 53.8783 31.579 54.1903 31.8878C54.5023 32.1967 54.7505 32.5642 54.9207 32.9693C55.0909 33.3744 55.1798 33.8092 55.1822 34.2487C55.1822 34.9182 54.785 35.9209 54.0553 36.2975C54.9318 36.674 55.7824 37.9076 55.7824 39.0792C55.7828 40.0204 55.4107 40.9233 54.7477 41.5898C54.0847 42.2563 53.185 42.6319 52.2461 42.6342ZM47.3856 32.9517V35.5487H52.0734C52.5742 35.5083 53.0953 34.9643 53.0953 34.2502C53.0913 33.911 52.9567 33.5864 52.7196 33.3444C52.4824 33.1024 52.1612 32.9617 51.8229 32.9517H47.3856ZM47.3856 37.5686V40.5984H52.2461C53.0593 40.5984 53.7055 39.8669 53.7055 39.0719C53.7078 38.6799 53.556 38.3027 53.2828 38.0221C53.0096 37.7415 52.6371 37.5801 52.2461 37.5729L47.3856 37.5686Z" fill="white"/>
<path d="M69.555 36.7577C69.555 40.0415 66.7383 42.6962 63.51 42.6962C60.2817 42.6962 57.4391 40.0415 57.4391 36.7577C57.4391 33.5172 60.2558 30.8611 63.51 30.8611C66.7642 30.8611 69.555 33.5172 69.555 36.7577ZM59.5203 36.7577C59.5203 38.8902 61.377 40.6056 63.5057 40.6056C65.6344 40.6056 67.468 38.8902 67.468 36.7577C67.468 34.6671 65.6329 32.9517 63.5057 32.9517C61.3784 32.9517 59.5203 34.6671 59.5203 36.7577Z" fill="white"/>
<path d="M72.8511 36.7577C72.8511 39.1008 74.6027 40.6056 76.7372 40.6056C79.3653 40.6056 80.429 39.1628 80.429 39.2047L81.743 40.8567C81.6394 40.9605 79.9065 42.6962 76.7372 42.6962C73.483 42.6962 70.7699 40.2507 70.7699 36.7577C70.7699 33.308 73.483 30.8611 76.7372 30.8611C79.3855 30.8611 81.0133 32.0326 81.0752 32.0745V34.1434H79.5524L79.2646 33.4538C78.4651 33.1202 77.6074 32.9495 76.7415 32.9517C74.6027 32.9517 72.8511 34.4579 72.8511 36.7577Z" fill="white"/>
<path d="M87.0768 42.6341V32.868H82.9028V30.9231H93.3334V32.868H89.1594V42.6341H87.0768Z" fill="white"/>
<path d="M103.932 42.6342V32.868H103.328L99.0718 42.6342H95.4247V30.9231H97.5102V40.6864H97.9276L102.225 30.9202H106.022V42.6342H103.932Z" fill="white"/>
<path d="M0.0332031 49.4801V55.7851L10.9704 55.6942L17.3219 49.4801H0.0332031Z" fill="url(#paint0_linear_43_75)"/>
<path d="M52.2605 29.1066C50.3072 29.1072 48.3836 28.627 46.6587 27.708C44.9339 26.789 43.4606 25.4595 42.3683 23.8361C42.2936 23.7254 42.2415 23.601 42.2148 23.47C42.1881 23.3391 42.1874 23.2041 42.2127 23.0729C42.238 22.9417 42.2889 22.8167 42.3624 22.7052C42.4359 22.5937 42.5306 22.4978 42.641 22.4229C42.8642 22.2718 43.138 22.2157 43.4024 22.2669C43.5333 22.2923 43.658 22.3433 43.7692 22.417C43.8805 22.4907 43.9762 22.5856 44.0508 22.6963C44.9573 24.0437 46.18 25.1474 47.6114 25.9104C49.0429 26.6734 50.6393 27.0724 52.2605 27.0724C53.8818 27.0724 55.4782 26.6734 56.9096 25.9104C58.3411 25.1474 59.5637 24.0437 60.4702 22.6963C60.621 22.4729 60.8542 22.3186 61.1184 22.2675C61.3827 22.2163 61.6564 22.2725 61.8793 22.4236C62.1022 22.5748 62.2561 22.8085 62.3071 23.0734C62.3582 23.3383 62.3021 23.6127 62.1513 23.8361C61.0595 25.4595 59.5864 26.7892 57.8618 27.7082C56.1372 28.6272 54.2137 29.1074 52.2605 29.1066Z" fill="#8CFFF1"/>
<defs>
<linearGradient id="paint0_linear_43_75" x1="8.67476" y1="55.7886" x2="8.67509" y2="49.4828" gradientUnits="userSpaceOnUse">
<stop offset="0.21" stop-color="#41BBBE" stop-opacity="0"/>
<stop offset="1" stop-color="#111111" stop-opacity="0.3"/>
</linearGradient>
</defs>
</svg>
