<svg width="16" height="13" viewBox="0 0 16 13" fill="none" xmlns="http://www.w3.org/2000/svg">
<path d="M10.2694 2.59875V0.569179C10.2577 0.439505 10.2994 0.310524 10.3864 0.2072C10.4735 0.103875 10.5996 0.0335642 10.7404 0.00992858C10.8292 -0.00669475 10.9212 -0.00238802 11.0077 0.0224283C11.0942 0.0472446 11.1722 0.0917557 11.2344 0.15172C11.376 0.272497 11.5234 0.398534 11.6476 0.521936L15.291 3.83805C15.4297 3.96145 15.5799 4.07957 15.707 4.2056C15.7769 4.27068 15.8407 4.34095 15.8978 4.41566C15.9639 4.48996 16 4.58264 16 4.67822C16 4.77379 15.9639 4.86647 15.8978 4.94078C15.8285 5.03377 15.7513 5.12157 15.6666 5.20333L11.2922 9.16795C11.2049 9.26319 11.0834 9.32729 10.9491 9.34891C10.8148 9.37053 10.6763 9.34831 10.5584 9.28613C10.4611 9.23578 10.382 9.16082 10.3307 9.07039C10.2794 8.97997 10.2581 8.87796 10.2694 8.77675C10.2694 8.18074 10.2694 7.58212 10.2694 6.98611C10.2694 6.72356 10.3041 6.76029 10.0181 6.76291C9.09637 6.76291 8.17756 6.78129 7.25588 6.79705C6.44089 6.79181 5.62902 6.88903 4.84333 7.08589C4.13597 7.26464 3.49247 7.60861 2.97686 8.08359C2.5179 8.54466 2.20445 9.10979 2.06962 9.71932C1.89996 10.441 1.84353 11.1809 1.90204 11.9169C1.90204 12.1795 1.9396 12.4184 1.95693 12.6705C1.95693 12.8569 1.90782 12.933 1.74891 12.9882C1.70301 13.0034 1.65274 13.0039 1.60648 12.9896C1.56021 12.9753 1.52074 12.947 1.49466 12.9094C1.42137 12.8224 1.35749 12.7293 1.30395 12.6311C-0.530746 9.52768 0.078896 7.17778 0.168464 6.76032C0.308469 6.05235 0.636001 5.38595 1.12277 4.81873C1.60954 4.2515 2.24094 3.80049 2.96242 3.50459C3.81376 3.13112 4.72609 2.8855 5.66391 2.7773C6.43104 2.69247 7.20263 2.64513 7.97535 2.63551C8.69189 2.61976 9.41997 2.62239 10.125 2.61452L10.2694 2.59875Z" fill="#1BC6C6"/>
</svg>
