<svg width="27" height="22" viewBox="0 0 27 22" fill="none" xmlns="http://www.w3.org/2000/svg">
<path d="M17.3297 4.39788V0.963225C17.3099 0.743778 17.3803 0.525502 17.5271 0.350646C17.674 0.175789 17.8868 0.0568009 18.1244 0.0168022C18.2743 -0.0113296 18.4295 -0.00404126 18.5755 0.0379556C18.7214 0.0799524 18.8531 0.155279 18.9581 0.256757C19.197 0.461149 19.4457 0.674442 19.6554 0.883276L25.8036 6.49515C26.0376 6.70399 26.2911 6.90389 26.5056 7.11717C26.6236 7.2273 26.7312 7.34622 26.8275 7.47266C26.9391 7.5984 27 7.75525 27 7.91698C27 8.07872 26.9391 8.23557 26.8275 8.36131C26.7107 8.51868 26.5803 8.66727 26.4374 8.80564L19.0557 15.515C18.9083 15.6762 18.7032 15.7846 18.4766 15.8212C18.2499 15.8578 18.0163 15.8202 17.8172 15.715C17.6531 15.6298 17.5196 15.5029 17.433 15.3499C17.3465 15.1969 17.3106 15.0242 17.3297 14.853C17.3297 13.8443 17.3297 12.8313 17.3297 11.8227C17.3297 11.3783 17.3882 11.4405 16.9055 11.4449C15.3501 11.4449 13.7996 11.476 12.2443 11.5027C10.869 11.4938 9.49898 11.6584 8.17312 11.9915C6.97945 12.294 5.89355 12.8761 5.02345 13.6799C4.24895 14.4602 3.72001 15.4166 3.49249 16.4481C3.20618 17.6694 3.11096 18.9215 3.20969 20.1671C3.20969 20.6114 3.27307 21.0158 3.30233 21.4423C3.30233 21.7578 3.21945 21.8867 2.95129 21.98C2.87383 22.0058 2.789 22.0066 2.71093 21.9824C2.63286 21.9581 2.56625 21.9103 2.52223 21.8467C2.39855 21.6995 2.29077 21.5418 2.20042 21.3757C-0.895634 16.1238 0.133137 12.147 0.284283 11.4405C0.520542 10.2424 1.07325 9.11469 1.89468 8.15477C2.7161 7.19485 3.78158 6.4316 4.99908 5.93085C6.43572 5.29882 7.97528 4.88316 9.55786 4.70005C10.8524 4.55649 12.1544 4.47638 13.4584 4.46009C14.6676 4.43343 15.8962 4.4379 17.0859 4.42457L17.3297 4.39788Z" fill="#1BC6C6"/>
</svg>
