<svg width="46" height="44" viewBox="0 0 46 44" fill="none" xmlns="http://www.w3.org/2000/svg">
<path d="M11.9851 44C11.23 43.9976 10.4846 43.8317 9.80058 43.5139C9.11655 43.1961 8.51037 42.7339 8.02418 42.1596C7.53798 41.5853 7.18346 40.9126 6.98524 40.1882C6.78703 39.4639 6.74988 38.7053 6.87639 37.9653L8.51838 28.454L1.56745 21.715C0.873805 21.0432 0.383181 20.1918 0.151124 19.2571C-0.0809339 18.3224 -0.0451532 17.3418 0.254414 16.4263C0.55398 15.5108 1.10536 14.6969 1.84614 14.0769C2.58692 13.4568 3.48751 13.0554 4.44594 12.9179L14.0526 11.5318L18.3503 2.87663C18.7783 2.01324 19.4409 1.28621 20.263 0.777825C21.0851 0.269441 22.034 0 23.0022 0C23.9704 0 24.9192 0.269441 25.7413 0.777825C26.5634 1.28621 27.226 2.01324 27.6541 2.87663L31.9493 11.5318L41.5584 12.9179C42.5164 13.0561 43.4164 13.4582 44.1565 14.0785C44.8967 14.6988 45.4474 15.5128 45.7464 16.4282C46.0454 17.3436 46.0808 18.3238 45.8484 19.2582C45.6161 20.1925 45.1255 21.0435 44.4319 21.715L37.486 28.454L39.1255 37.9653C39.2897 38.9139 39.1835 39.8893 38.819 40.781C38.4546 41.6728 37.8463 42.4453 37.063 43.0112C36.2798 43.577 35.3528 43.9136 34.3872 43.9828C33.4215 44.052 32.4556 43.8511 31.5988 43.4027L23.0059 38.9233L14.413 43.4027C13.6649 43.7959 12.8313 44.0009 11.9851 44ZM22.9984 33.3963C23.84 33.3955 24.6691 33.5988 25.4139 33.9885L33.5813 38.2589L32.0219 29.213C31.8814 28.3882 31.9448 27.5418 32.2064 26.7468C32.468 25.9517 32.9201 25.2318 33.5237 24.649L40.1317 18.2435L31.0006 16.9245C30.1683 16.8044 29.3779 16.485 28.6973 15.9938C28.0166 15.5027 27.4662 14.8545 27.0934 14.105L23.0084 5.87532L18.9235 14.105C18.5514 14.8545 18.0015 15.5029 17.3213 15.9941C16.641 16.4853 15.8508 16.8046 15.0188 16.9245L5.88518 18.2435L12.4957 24.649C13.0993 25.2318 13.5514 25.9517 13.813 26.7468C14.0746 27.5418 14.1379 28.3882 13.9975 29.213L12.4356 38.2589L20.6055 33.9885C21.3428 33.6026 22.1628 33.3995 22.9959 33.3963H22.9984Z" fill="#1BC6C6"/>
</svg>
