<svg width="19" height="18" viewBox="0 0 19 18" fill="none" xmlns="http://www.w3.org/2000/svg">
<path d="M4.95027 17.9999C4.63842 17.999 4.33052 17.9311 4.048 17.8011C3.76547 17.6711 3.51509 17.482 3.31428 17.247C3.11346 17.0121 2.96703 16.7369 2.88516 16.4406C2.80329 16.1443 2.78795 15.8339 2.8402 15.5312L3.5184 11.6402L0.647415 8.88337C0.360914 8.60856 0.158268 8.26025 0.0624196 7.87788C-0.0334286 7.49551 -0.0186499 7.09435 0.105082 6.71982C0.228814 6.34529 0.456554 6.01235 0.762523 5.7587C1.06849 5.50505 1.44047 5.34082 1.83634 5.2846L5.80423 4.71755L7.57935 1.1768C7.75614 0.823597 8.0298 0.526175 8.36937 0.3182C8.70894 0.110226 9.10085 0 9.50074 0C9.90063 0 10.2925 0.110226 10.6321 0.3182C10.9717 0.526175 11.2453 0.823597 11.4221 1.1768L13.1962 4.71755L17.1651 5.2846C17.5608 5.34113 17.9326 5.50559 18.2383 5.75937C18.544 6.01315 18.7714 6.34612 18.8949 6.72059C19.0184 7.09507 19.033 7.49609 18.9371 7.87832C18.8411 8.26054 18.6385 8.60869 18.352 8.88337L15.4831 11.6402L16.1603 15.5312C16.2281 15.9193 16.1842 16.3183 16.0337 16.6831C15.8831 17.0479 15.6319 17.3639 15.3084 17.5954C14.9849 17.8269 14.602 17.9646 14.2032 17.9929C13.8043 18.0212 13.4054 17.939 13.0515 17.7556L9.50229 15.9231L5.9531 17.7556C5.64409 17.9164 5.29979 18.0003 4.95027 17.9999ZM9.49919 13.6621C9.8468 13.6618 10.1892 13.7449 10.4969 13.9044L13.8703 15.6513L13.2262 11.9507C13.1682 11.6133 13.1944 11.2671 13.3024 10.9418C13.4105 10.6166 13.5972 10.3221 13.8465 10.0836L16.5758 7.46321L12.8044 6.92364C12.4606 6.87449 12.1341 6.74383 11.853 6.54291C11.5719 6.34198 11.3446 6.07681 11.1906 5.7702L9.50333 2.40353L7.81609 5.7702C7.6624 6.07684 7.43528 6.34206 7.15431 6.54301C6.87334 6.74395 6.54696 6.87458 6.20329 6.92364L2.4308 7.46321L5.16118 10.0836C5.41049 10.3221 5.59722 10.6166 5.70528 10.9418C5.81333 11.2671 5.83948 11.6133 5.78148 11.9507L5.13636 15.6513L8.51084 13.9044C8.81534 13.7465 9.15404 13.6634 9.49815 13.6621H9.49919Z" fill="#1BC6C6"/>
</svg>
