<svg width="20" height="18" viewBox="0 0 20 18" fill="none" xmlns="http://www.w3.org/2000/svg">
<path d="M4.95211 18C4.64025 17.999 4.33235 17.9312 4.04983 17.8011C3.7673 17.6711 3.51692 17.4821 3.31611 17.2471C3.11529 17.0122 2.96886 16.737 2.88699 16.4406C2.80512 16.1443 2.78978 15.834 2.84203 15.5312L3.52023 11.6403L0.649246 8.88343C0.362745 8.60862 0.160099 8.26031 0.0642507 7.87794C-0.0315976 7.49557 -0.0168189 7.09441 0.106913 6.71988C0.230645 6.34535 0.458385 6.01241 0.764355 5.75876C1.07032 5.50511 1.4423 5.34088 1.83817 5.28466L5.80606 4.71761L7.58118 1.17686C7.75797 0.823658 8.03163 0.526236 8.3712 0.318261C8.71077 0.110287 9.10268 6.10352e-05 9.50257 6.10352e-05C9.90246 6.10352e-05 10.2944 0.110287 10.6339 0.318261C10.9735 0.526236 11.2472 0.823658 11.424 1.17686L13.198 4.71761L17.167 5.28466C17.5627 5.34119 17.9344 5.50565 18.2401 5.75943C18.5458 6.01321 18.7733 6.34618 18.8968 6.72065C19.0203 7.09513 19.0349 7.49616 18.9389 7.87838C18.843 8.2606 18.6403 8.60875 18.3538 8.88343L15.4849 11.6403L16.1621 15.5312C16.2299 15.9193 16.1861 16.3183 16.0355 16.6832C15.885 17.048 15.6337 17.364 15.3102 17.5955C14.9867 17.827 14.6038 17.9646 14.205 17.993C13.8061 18.0213 13.4072 17.9391 13.0533 17.7557L9.50412 15.9232L5.95494 17.7557C5.64592 17.9165 5.30162 18.0004 4.95211 18ZM9.50102 13.6621C9.84863 13.6618 10.1911 13.745 10.4987 13.9044L13.8721 15.6514L13.228 11.9508C13.17 11.6134 13.1962 11.2671 13.3042 10.9419C13.4123 10.6166 13.599 10.3221 13.8483 10.0837L16.5777 7.46327L12.8062 6.9237C12.4625 6.87455 12.136 6.74389 11.8548 6.54297C11.5737 6.34204 11.3464 6.07687 11.1924 5.77027L9.50516 2.40359L7.81792 5.77027C7.66423 6.0769 7.43711 6.34212 7.15614 6.54307C6.87517 6.74401 6.54879 6.87464 6.20512 6.9237L2.43263 7.46327L5.16301 10.0837C5.41232 10.3221 5.59905 10.6166 5.70711 10.9419C5.81517 11.2671 5.84132 11.6134 5.78331 11.9508L5.1382 15.6514L8.51267 13.9044C8.81717 13.7466 9.15587 13.6634 9.49998 13.6621H9.50102Z" fill="#1BC6C6"/>
</svg>
