<svg width="21" height="22" viewBox="0 0 21 22" fill="none" xmlns="http://www.w3.org/2000/svg">
<path fill-rule="evenodd" clip-rule="evenodd" d="M7.3431 0.22406H13.7529C19.6061 0.22406 21 1.62108 21 7.487V13.9109C21 19.7768 19.6061 21.1738 13.7529 21.1738H7.3431C1.48998 21.1738 0.0960083 19.7768 0.0960083 13.9109V7.487C0.0960083 1.62108 1.48998 0.22406 7.3431 0.22406Z" fill="black"/>
<path d="M10.0869 14.2355C9.9332 14.4873 8.96841 15.3547 8.81835 15.4926C8.7948 15.5086 8.76788 15.5184 8.73988 15.5213C8.71188 15.5242 8.68362 15.52 8.65751 15.5091C8.63139 15.4982 8.60819 15.4809 8.58988 15.4587C8.57156 15.4365 8.55867 15.41 8.5523 15.3815C8.44275 15.0608 8.3332 14.7381 8.23562 14.4126C8.04229 13.7654 7.85909 13.1153 7.66208 12.469C7.64696 12.4323 7.62491 12.3992 7.59724 12.3716C7.56956 12.3439 7.53682 12.3224 7.50097 12.3082C6.81421 12.0592 6.12008 11.8218 5.43516 11.5748C5.33578 11.5404 5.24248 11.4893 5.15898 11.4235C4.9408 11.2435 4.9454 10.9965 5.18384 10.849C5.37075 10.7428 5.56563 10.6525 5.76657 10.5791C7.67589 9.79652 9.58551 9.01621 11.4954 8.23814C12.428 7.85517 13.3587 7.4722 14.2922 7.09785C14.4099 7.04761 14.5339 7.01536 14.6605 7.0021C14.9164 6.98008 15.0388 7.13232 14.9891 7.3937C14.8492 8.13219 14.7089 8.87005 14.5684 9.60727C14.2002 11.5515 13.8298 13.4963 13.4572 15.4418C13.3523 15.9904 12.9049 16.1675 12.4768 15.8248C11.8075 15.2963 10.2655 14.3762 10.0869 14.2355Z" fill="white"/>
</svg>
