<svg width="22" height="22" viewBox="0 0 22 22" fill="none" xmlns="http://www.w3.org/2000/svg">
<path fill-rule="evenodd" clip-rule="evenodd" d="M7.44194 0.084025L13.8831 0.154605C19.7641 0.219583 21.1492 1.63789 21.0854 7.53294L21.015 13.9882C20.9502 19.8821 19.5338 21.2702 13.6528 21.2063L7.21055 21.1357C1.32948 21.0707 -0.0555532 19.6513 0.00928273 13.7574L0.0797085 7.30105C0.144545 1.40711 1.55976 0.0190472 7.44194 0.084025Z" fill="black"/>
<path d="M5.72383 7.31214C7.07948 8.69784 8.72148 9.58291 10.8066 9.72217C10.7156 9.38826 10.7137 9.03939 10.801 8.70467C11.0094 7.98277 11.5323 7.50863 12.2627 7.21731C12.8311 6.97951 13.4744 6.93524 14.0756 7.09257C14.4464 7.18551 14.7789 7.37601 15.0313 7.64019C15.0548 7.67504 15.0908 7.7014 15.1333 7.7148C15.1757 7.72819 15.222 7.7278 15.2641 7.71366C15.6584 7.58979 16.0546 7.46933 16.4489 7.34546C16.5268 7.32154 16.601 7.28736 16.7043 7.24721C16.5503 7.78372 16.1663 8.13569 15.7401 8.46034L15.7654 8.50134L17 8.21087C16.8995 8.36379 16.8301 8.5227 16.7108 8.63803C16.5099 8.83538 16.2734 9.00283 16.0602 9.19164C15.9975 9.24542 15.9563 9.31665 15.9429 9.39411C15.8996 10.2339 15.7189 11.0632 15.4068 11.8545C14.7844 13.3607 13.7263 14.526 12.1397 15.2718C10.9568 15.8263 9.68847 16.0407 8.3713 15.9937C7.15083 15.9544 6.05993 15.5478 5 14.9514C6.33312 15.0531 7.51322 14.7806 8.56752 14.057C8.05586 13.9792 7.57331 13.8468 7.16586 13.5521C6.7664 13.2569 6.47044 12.862 6.31435 12.4158L7.2297 12.4252L7.25598 12.3876C6.07964 12.0143 5.44875 11.277 5.41214 10.1579L6.33312 10.3919L6.35753 10.3433C5.75011 9.89645 5.4957 9.28988 5.42904 8.6107C5.37177 8.05539 5.48724 7.60859 5.72383 7.31214Z" fill="white"/>
</svg>
