<svg width="22" height="21" viewBox="0 0 22 21" fill="none" xmlns="http://www.w3.org/2000/svg">
<path fill-rule="evenodd" clip-rule="evenodd" d="M7.467 0H13.8768C19.7299 0 21.1239 1.3937 21.1239 7.2457V13.6543C21.1239 19.5063 19.7299 20.9 13.8768 20.9H7.467C1.61388 20.9 0.21991 19.5063 0.21991 13.6543V7.2457C0.21991 1.3937 1.61388 0 7.467 0Z" fill="black"/>
<path fill-rule="evenodd" clip-rule="evenodd" d="M17.3389 7.21701C17.4361 6.89324 17.3389 6.65686 16.8783 6.65686H15.3535C15.2112 6.64725 15.0696 6.68421 14.9501 6.7622C14.8305 6.84019 14.7395 6.95498 14.6906 7.0893C14.6906 7.0893 13.9148 8.98261 12.8171 10.2127C12.4616 10.569 12.3007 10.6821 12.1061 10.6821C12.01 10.6821 11.8692 10.5701 11.8692 10.2452V7.22036C11.8692 6.83274 11.7574 6.66021 11.4343 6.66021H9.03874C8.99015 6.65749 8.94151 6.66448 8.89564 6.68074C8.84976 6.69699 8.80757 6.72221 8.77149 6.75493C8.73541 6.78765 8.70617 6.82722 8.68546 6.87135C8.66475 6.91547 8.65298 6.96327 8.65084 7.01199C8.65084 7.37945 9.19971 7.46011 9.25672 8.50088V10.7505C9.25672 11.2434 9.16729 11.333 8.9739 11.333C8.45745 11.333 7.19985 9.42849 6.45424 7.25398C6.30892 6.83162 6.16248 6.66021 5.77235 6.66021H4.24423C3.80826 6.66021 3.72107 6.86636 3.72107 7.09266C3.72107 7.49709 4.23752 9.50356 6.12782 12.1576C7.38654 13.9702 9.1617 14.9583 10.7759 14.9583C11.7451 14.9583 11.8647 14.7343 11.8647 14.3646V12.9844C11.8647 12.5486 11.9563 12.4612 12.2638 12.4612C12.4873 12.4612 12.8775 12.5732 13.7818 13.4482C14.8147 14.4833 14.9858 14.9483 15.5704 14.9483H17.0996C17.5356 14.9483 17.7536 14.7242 17.6273 14.2996C17.5009 13.875 16.9968 13.2476 16.3417 12.5071C15.9862 12.087 15.4541 11.6333 15.292 11.4069C15.0685 11.1157 15.1311 10.9857 15.292 10.7269C15.292 10.7269 17.1499 8.10541 17.3433 7.21477L17.3389 7.21701Z" fill="white"/>
</svg>
